# xmcd
#
# Track frame offsets: 
#        150
#        14545
#        30715
#        50017
#        67310
#        82812
#        98002
#        118270
#        133407
#        148567
#        163697
#
# Disc length: 2380 seconds
#
# Revision: 3
# Processed by: cddbd v1.5.2PL0 Copyright (c) Steve Scherf et al.
# Submitted via: ExactAudioCopyFreeDBPlugin 1.0
#
DISCID=9f094a0b
DTITLE=Di derre - Slå Meg På!
DYEAR=1998
DGENRE=Pop
TTITLE0=Slå Meg På
TTITLE1=Hjertesabotør
TTITLE2=14 Kvinner
TTITLE3=Blå Himmel
TTITLE4=Ostesuffle`
TTITLE5=Kom Til Berlin
TTITLE6=Kjærlighetens Togtabell
TTITLE7=Beate
TTITLE8=Maria Kommer Hjem
TTITLE9=Sjåfør
TTITLE10=Punktum
EXTD=
EXTT0=
EXTT1=
EXTT2=
EXTT3=
EXTT4=
EXTT5=
EXTT6=
EXTT7=
EXTT8=
EXTT9=
EXTT10=
PLAYORDER=
